<?xml version="1.0" encoding="UTF-8"?>
<svg xmlns="http://www.w3.org/2000/svg" width="189" height="53" viewBox="0 0 189 53" fill="none">
  <g clip-path="url(#clip0_284_189)">
    <path d="M86.6124 29.9106C86.2576 29.9106 85.9859 29.8436 85.7972 29.717C85.6085 29.5905 85.45 29.3597 85.3217 29.0396L83.6838 24.6103H73.8715L72.2789 29.047C72.1958 29.315 72.0298 29.5458 71.8109 29.717C71.6222 29.8436 71.3354 29.9106 70.9504 29.9106H64.0592C63.4704 29.9106 63.4176 29.65 63.4176 29.4118C63.4327 29.1438 63.5006 28.8833 63.6214 28.6451L74.9886 1.80883C75.2075 1.30263 75.4414 0.945305 75.683 0.759201C75.9094 0.580541 76.2793 0.491211 76.7699 0.491211H80.8458C81.3364 0.491211 81.7062 0.580541 81.9327 0.759201C82.1742 0.945305 82.4082 1.30263 82.6271 1.80883L93.9942 28.6451C94.1603 29.0396 94.198 29.2555 94.198 29.3671C94.2056 29.4416 94.1905 29.516 94.1678 29.583C94.1452 29.65 94.0999 29.717 94.0471 29.7691C93.9112 29.8733 93.7301 29.9255 93.5565 29.9106H86.6124ZM82.0232 18.0073L79.3135 11.0619C79.2758 10.9577 79.2003 10.8684 79.1097 10.8088C79.0192 10.7493 78.9059 10.7121 78.8003 10.7121C78.6871 10.7121 78.5814 10.7418 78.4908 10.8088C78.4002 10.8684 78.3247 10.9577 78.287 11.0619L75.5471 18.0148H82.0232V18.0073Z" fill="#2A2CEA"></path>
    <path d="M118.268 14.6353C119.401 14.1812 120.344 13.3772 120.963 12.3424C121.627 11.2482 121.974 9.99009 121.952 8.70969C121.952 6.14145 121.144 4.13153 119.536 2.67247C117.929 1.21342 115.513 0.483887 112.298 0.483887H99.4439C98.7419 0.483887 98.2362 0.640214 97.9267 0.960313C97.6173 1.28041 97.4663 1.75684 97.4663 2.38959V28.0496C97.4663 28.6824 97.6173 29.1514 97.9267 29.4566C98.2362 29.7618 98.7419 29.9107 99.4439 29.9107H112.298C114.608 29.9107 116.547 29.531 118.11 28.7643C119.672 27.9975 120.842 26.9554 121.62 25.6303C122.405 24.2755 122.805 22.7345 122.782 21.1712C122.782 17.799 121.28 15.6179 118.268 14.6353ZM106.139 6.20101C106.139 6.05957 106.184 5.91813 106.275 5.80647C106.629 5.36726 107.15 5.3226 107.528 5.56081L112.841 8.95535C112.909 9.00002 112.97 9.05212 113.015 9.11912C113.091 9.2159 113.136 9.335 113.166 9.45411C113.196 9.57322 113.196 9.69977 113.174 9.81887C113.151 9.93798 113.106 10.0571 113.038 10.1539C112.97 10.2581 112.879 10.3474 112.773 10.4144L107.528 13.7717C107.15 14.0174 106.629 13.9653 106.275 13.5261C106.184 13.4144 106.131 13.273 106.131 13.1241L106.139 6.20101ZM109.664 24.9901C108.622 24.9901 107.633 24.5807 106.894 23.8586C106.162 23.1365 105.746 22.1539 105.746 21.1266C105.746 20.0993 106.162 19.1166 106.894 18.3946C107.626 17.6725 108.622 17.263 109.664 17.263C110.705 17.263 111.702 17.6725 112.434 18.3946C113.166 19.1166 113.581 20.0993 113.581 21.1266C113.581 22.1539 113.166 23.1365 112.434 23.8586C111.694 24.5807 110.698 24.9826 109.664 24.9901Z" fill="#2A2CEA"></path>
    <path d="M19.0284 29.9106C18.7491 29.9255 18.4623 29.8957 18.1905 29.8213C18.0094 29.7469 17.8584 29.6203 17.7452 29.4565L8.43862 16.2431V27.9975C8.43862 28.6749 8.28767 29.1737 7.9933 29.464C7.69893 29.7543 7.14793 29.9032 6.37049 29.9032H2.03044C1.253 29.9032 0.717099 29.7543 0.437826 29.464C0.151004 29.1662 0.00759389 28.6749 0.00759389 27.99V2.44909C4.59661e-05 1.76422 0.151004 1.25802 0.452921 0.95281C0.754838 0.647599 1.28319 0.491272 2.03044 0.491272H6.37049C7.14793 0.491272 7.69138 0.647599 7.98575 0.95281C8.28767 1.26547 8.43862 1.76422 8.43862 2.44909V14.0024L17.398 0.982587C17.4961 0.811371 17.6395 0.68482 17.8207 0.602934C17.949 0.550825 18.2056 0.491272 18.7189 0.491272H25.6101C25.7837 0.476383 25.9649 0.528493 26.1008 0.632711C26.1536 0.68482 26.1989 0.744373 26.2215 0.818815C26.2442 0.885813 26.2593 0.960254 26.2517 1.0347C26.2593 1.27291 26.1687 1.50368 26.0102 1.67489L16.2885 15.067L26.3498 28.7047C26.5159 28.8833 26.6065 29.1215 26.6065 29.3672C26.614 29.4416 26.5989 29.5161 26.5763 29.5831C26.5536 29.6501 26.5084 29.7171 26.4555 29.7692C26.3121 29.8734 26.1385 29.9255 25.9649 29.9106H19.0284Z" fill="#2A2CEA"></path>
    <path d="M37.5963 0.952749C37.3094 0.647539 36.7735 0.491211 36.0187 0.491211H31.7919C31.0673 0.491211 30.5465 0.647539 30.2597 0.952749C29.9653 1.2654 29.8219 1.76416 29.8219 2.44903V28.0049C29.8219 28.6897 29.9653 29.181 30.2446 29.4788C30.5163 29.7691 31.0447 29.918 31.7995 29.918H36.0263C36.7811 29.918 37.317 29.7691 37.6038 29.4788C37.8906 29.1885 38.0416 28.6897 38.0416 28.0123V2.44903C38.034 1.76416 37.8906 1.25796 37.5963 0.952749Z" fill="#2A2CEA"></path>
    <path d="M66.9878 0.863539C66.7387 0.640214 66.3387 0.521108 65.8179 0.498775C65.7952 0.498775 65.7726 0.498775 65.7499 0.491331C65.7122 0.491331 65.682 0.483887 65.6443 0.483887H42.525C42.4872 0.483887 42.4495 0.491331 42.4117 0.491331C42.3891 0.491331 42.3665 0.491331 42.3438 0.491331C41.823 0.513663 41.4305 0.625326 41.189 0.841207C40.9248 1.07198 40.7889 1.51863 40.7889 2.16627V5.76925C40.7889 6.41689 40.9248 6.87098 41.189 7.11664C41.4532 7.3623 41.8985 7.48885 42.5174 7.48885H49.8314V27.9975C49.8314 28.675 49.9823 29.1737 50.2767 29.464C50.571 29.7544 51.122 29.9032 51.8995 29.9032H56.2395C57.017 29.9032 57.568 29.7544 57.8623 29.464C58.1643 29.1737 58.3077 28.675 58.3077 27.9975V7.49629H65.6216C66.2405 7.49629 66.6934 7.36974 66.9727 7.11664C67.252 6.87098 67.3878 6.41689 67.3878 5.77669V2.17371C67.4029 1.55585 67.2671 1.11664 66.9878 0.863539Z" fill="#2A2CEA"></path>
    <path d="M151.925 4.09423C149.358 1.5111 145.547 0.200928 140.588 0.200928C135.629 0.200928 131.809 1.5111 129.251 4.09423C126.684 6.6848 125.386 10.4143 125.386 15.2009C125.386 19.9875 126.684 23.7171 129.251 26.3076C131.817 28.8908 135.629 30.2009 140.588 30.2009C145.547 30.2009 149.366 28.8908 151.925 26.3002C154.491 23.7096 155.797 19.9801 155.797 15.2009C155.797 10.4218 154.498 6.6848 151.925 4.09423ZM145.426 21.8709C144.399 23.3002 142.777 24.0223 140.588 24.0223C138.406 24.0223 136.776 23.3002 135.757 21.8709C134.708 20.4118 134.179 18.1637 134.179 15.2009C134.179 12.2679 134.715 10.0347 135.757 8.57562C136.783 7.14634 138.406 6.42425 140.588 6.42425C142.769 6.42425 144.399 7.14634 145.426 8.57562C146.475 10.0347 147.003 12.2679 147.003 15.2009C147.003 18.1637 146.475 20.4118 145.426 21.8709Z" fill="#2A2CEA"></path>
    <path d="M185.135 4.09423C182.569 1.5111 178.75 0.200928 173.798 0.200928C168.839 0.200928 165.02 1.5111 162.461 4.09423C159.895 6.6848 158.597 10.4143 158.597 15.2009C158.597 19.9875 159.895 23.7171 162.461 26.3076C165.028 28.8908 168.839 30.2009 173.798 30.2009C178.757 30.2009 182.577 28.8908 185.135 26.3002C187.702 23.7096 189.008 19.9801 189.008 15.2009C189.008 10.4218 187.702 6.6848 185.135 4.09423ZM178.629 21.8709C177.603 23.3002 175.98 24.0223 173.791 24.0223C171.61 24.0223 169.979 23.3002 168.96 21.8709C167.911 20.4118 167.383 18.1637 167.383 15.2009C167.383 12.2679 167.919 10.0347 168.96 8.57562C169.987 7.14634 171.61 6.42425 173.791 6.42425C175.972 6.42425 177.603 7.14634 178.629 8.57562C179.678 10.0347 180.207 12.2679 180.207 15.2009C180.207 18.1637 179.671 20.4118 178.629 21.8709Z" fill="#2A2CEA"></path>
    <path d="M7.55295 41.9074H4.63445V49.9999H3.11995V41.9074H0.194946V40.6399H7.55295V41.9074Z" fill="#49497C"></path>
    <path d="M9.87883 44.1564C10.1518 43.8877 10.4508 43.6732 10.7758 43.5129C11.1008 43.3482 11.48 43.2659 11.9133 43.2659C12.2773 43.2659 12.5958 43.3265 12.8688 43.4479C13.1462 43.5692 13.378 43.7404 13.5643 43.9614C13.755 44.1824 13.898 44.4489 13.9933 44.7609C14.0887 45.0685 14.1363 45.4087 14.1363 45.7814V49.9999H12.7453V45.7814C12.7453 45.335 12.6413 44.9884 12.4333 44.7414C12.2297 44.4944 11.9177 44.3709 11.4973 44.3709C11.1853 44.3709 10.895 44.4424 10.6263 44.5854C10.362 44.7284 10.1128 44.9234 9.87883 45.1704V49.9999H8.48133V40.3799H9.87883V44.1564Z" fill="#49497C"></path>
    <path d="M20.1169 45.9374C20.1169 45.7034 20.0823 45.4867 20.0129 45.2874C19.9479 45.0837 19.8504 44.9082 19.7204 44.7609C19.5904 44.6092 19.4279 44.4922 19.2329 44.4099C19.0423 44.3232 18.8213 44.2799 18.5699 44.2799C18.0629 44.2799 17.6643 44.425 17.3739 44.7154C17.0836 45.0057 16.8994 45.413 16.8214 45.9374H20.1169ZM16.7824 46.7954C16.7998 47.1724 16.8583 47.4995 16.9579 47.7769C17.0576 48.0499 17.1898 48.2774 17.3544 48.4594C17.5234 48.6414 17.7228 48.7779 17.9524 48.8689C18.1864 48.9555 18.4464 48.9989 18.7324 48.9989C19.0054 48.9989 19.2416 48.9685 19.4409 48.9079C19.6403 48.8429 19.8136 48.7735 19.9609 48.6999C20.1083 48.6219 20.2339 48.5525 20.3379 48.4919C20.4419 48.4269 20.5373 48.3944 20.6239 48.3944C20.7366 48.3944 20.8233 48.4377 20.8839 48.5244L21.2804 49.0379C21.1158 49.2329 20.9294 49.3975 20.7214 49.5319C20.5134 49.6662 20.2924 49.7767 20.0584 49.8634C19.8244 49.9457 19.5839 50.0042 19.3369 50.0389C19.0899 50.0779 18.8494 50.0974 18.6154 50.0974C18.1561 50.0974 17.7293 50.0215 17.3349 49.8699C16.9449 49.7139 16.6048 49.4864 16.3144 49.1874C16.0284 48.8884 15.8031 48.5179 15.6384 48.0759C15.4781 47.6339 15.3979 47.1247 15.3979 46.5484C15.3979 46.089 15.4694 45.66 15.6124 45.2614C15.7598 44.8627 15.9678 44.516 16.2364 44.2214C16.5094 43.9267 16.8388 43.6949 17.2244 43.5259C17.6144 43.3525 18.0543 43.2659 18.5439 43.2659C18.9513 43.2659 19.3283 43.333 19.6749 43.4674C20.0216 43.5974 20.3206 43.7902 20.5719 44.0459C20.8233 44.3015 21.0183 44.6157 21.1569 44.9884C21.2999 45.3567 21.3714 45.777 21.3714 46.2494C21.3714 46.466 21.3476 46.6112 21.2999 46.6849C21.2523 46.7585 21.1656 46.7954 21.0399 46.7954H16.7824Z" fill="#49497C"></path>
    <path d="M34.388 45.3199C34.388 46.0132 34.2753 46.648 34.05 47.2244C33.8247 47.7964 33.5062 48.2882 33.0945 48.6999C32.6872 49.1115 32.1953 49.4322 31.619 49.6619C31.047 49.8872 30.41 49.9999 29.708 49.9999H26.172V40.6399H29.708C30.41 40.6399 31.047 40.7547 31.619 40.9844C32.1953 41.2097 32.6872 41.5282 33.0945 41.9399C33.5062 42.3515 33.8247 42.8455 34.05 43.4219C34.2753 43.9939 34.388 44.6265 34.388 45.3199ZM32.8345 45.3199C32.8345 44.7825 32.7608 44.2994 32.6135 43.8704C32.4705 43.4414 32.2625 43.0795 31.9895 42.7849C31.7208 42.4902 31.3937 42.2649 31.008 42.1089C30.6223 41.9485 30.189 41.8684 29.708 41.8684H27.6995V48.7714H29.708C30.189 48.7714 30.6223 48.6934 31.008 48.5374C31.3937 48.3814 31.7208 48.156 31.9895 47.8614C32.2625 47.5624 32.4705 47.2005 32.6135 46.7759C32.7608 46.3469 32.8345 45.8615 32.8345 45.3199Z" fill="#49497C"></path>
    <path d="M37.1434 43.3699V49.9999H35.7459V43.3699H37.1434ZM37.3774 41.3679C37.3774 41.4935 37.3514 41.6127 37.2994 41.7254C37.2517 41.838 37.1846 41.9377 37.0979 42.0244C37.0112 42.1067 36.9094 42.1739 36.7924 42.2259C36.6797 42.2735 36.5584 42.2974 36.4284 42.2974C36.3027 42.2974 36.1836 42.2735 36.0709 42.2259C35.9626 42.1739 35.8672 42.1067 35.7849 42.0244C35.7026 41.9377 35.6354 41.838 35.5834 41.7254C35.5357 41.6127 35.5119 41.4935 35.5119 41.3679C35.5119 41.2379 35.5357 41.1165 35.5834 41.0039C35.6354 40.8912 35.7026 40.7937 35.7849 40.7114C35.8672 40.6247 35.9626 40.5575 36.0709 40.5099C36.1836 40.4579 36.3027 40.4319 36.4284 40.4319C36.5584 40.4319 36.6797 40.4579 36.7924 40.5099C36.9094 40.5575 37.0112 40.6247 37.0979 40.7114C37.1846 40.7937 37.2517 40.8912 37.2994 41.0039C37.3514 41.1165 37.3774 41.2379 37.3774 41.3679Z" fill="#49497C"></path>
    <path d="M41.2653 46.6264C41.6986 46.6264 42.0236 46.5159 42.2403 46.2949C42.457 46.0739 42.5653 45.7857 42.5653 45.4304C42.5653 45.0664 42.457 44.7782 42.2403 44.5659C42.0236 44.3535 41.6986 44.2474 41.2653 44.2474C40.8363 44.2474 40.5113 44.3535 40.2903 44.5659C40.0736 44.7782 39.9653 45.0664 39.9653 45.4304C39.9653 45.6037 39.9935 45.764 40.0498 45.9114C40.1061 46.0587 40.1885 46.1865 40.2968 46.2949C40.4051 46.3989 40.5395 46.4812 40.6998 46.5419C40.8645 46.5982 41.053 46.6264 41.2653 46.6264ZM43.2088 50.3249C43.2088 50.1775 43.1655 50.0605 43.0788 49.9739C42.9965 49.8829 42.8838 49.8135 42.7408 49.7659C42.5978 49.7139 42.431 49.677 42.2403 49.6554C42.0496 49.6294 41.846 49.612 41.6293 49.6034C41.417 49.5904 41.1981 49.5795 40.9728 49.5709C40.7518 49.5579 40.5373 49.5362 40.3293 49.5059C40.1213 49.6142 39.9501 49.7442 39.8158 49.8959C39.6858 50.0475 39.6208 50.223 39.6208 50.4224C39.6208 50.5524 39.6533 50.6737 39.7183 50.7864C39.7876 50.899 39.8916 50.9965 40.0303 51.0789C40.1733 51.1612 40.3531 51.2262 40.5698 51.2739C40.7908 51.3215 41.0551 51.3454 41.3628 51.3454C41.9781 51.3454 42.4396 51.25 42.7473 51.0594C43.055 50.8687 43.2088 50.6239 43.2088 50.3249ZM44.6128 43.6104V44.1304C44.6128 44.3037 44.5088 44.4099 44.3008 44.4489L43.6378 44.5594C43.7505 44.8107 43.8068 45.0902 43.8068 45.3979C43.8068 45.7229 43.7418 46.0175 43.6118 46.2819C43.4861 46.5462 43.3106 46.7715 43.0853 46.9579C42.86 47.1442 42.5913 47.2872 42.2793 47.3869C41.9673 47.4865 41.6293 47.5364 41.2653 47.5364C41.1266 47.5364 40.9901 47.5299 40.8558 47.5169C40.7258 47.4995 40.598 47.4779 40.4723 47.4519C40.3466 47.5255 40.2535 47.6035 40.1928 47.6859C40.1321 47.7682 40.1018 47.8527 40.1018 47.9394C40.1018 48.0824 40.1646 48.1885 40.2903 48.2579C40.416 48.3272 40.5806 48.377 40.7843 48.4074C40.9923 48.4377 41.2285 48.4572 41.4928 48.4659C41.7571 48.4745 42.0258 48.4897 42.2988 48.5114C42.5718 48.533 42.8405 48.5699 43.1048 48.6219C43.3691 48.6695 43.6031 48.7519 43.8068 48.8689C44.0148 48.9815 44.1816 49.1354 44.3073 49.3304C44.433 49.5254 44.4958 49.7789 44.4958 50.0909C44.4958 50.3769 44.4243 50.6564 44.2813 50.9294C44.1383 51.2024 43.9303 51.445 43.6573 51.6574C43.3886 51.8697 43.0593 52.0387 42.6693 52.1644C42.2793 52.2944 41.8351 52.3594 41.3368 52.3594C40.8428 52.3594 40.4116 52.3117 40.0433 52.2164C39.6793 52.121 39.3738 51.991 39.1268 51.8264C38.8841 51.666 38.7021 51.4797 38.5808 51.2674C38.4638 51.055 38.4053 50.834 38.4053 50.6044C38.4053 50.2924 38.5028 50.0259 38.6978 49.8049C38.8971 49.5839 39.1658 49.4105 39.5038 49.2849C39.3218 49.1982 39.1745 49.079 39.0618 48.9274C38.9535 48.7757 38.8993 48.5764 38.8993 48.3294C38.8993 48.1344 38.9708 47.9307 39.1138 47.7184C39.2568 47.506 39.4713 47.3262 39.7573 47.1789C39.428 46.9969 39.168 46.7564 38.9773 46.4574C38.7866 46.154 38.6913 45.8009 38.6913 45.3979C38.6913 45.0685 38.7541 44.7717 38.8798 44.5074C39.0098 44.243 39.1896 44.0177 39.4193 43.8314C39.649 43.645 39.9198 43.502 40.2318 43.4024C40.5481 43.3027 40.8926 43.2529 41.2653 43.2529C41.8373 43.2529 42.3356 43.372 42.7603 43.6104H44.6128Z" fill="#49497C"></path>
    <path d="M47.1727 43.3699V49.9999H45.7752V43.3699H47.1727ZM47.4067 41.3679C47.4067 41.4935 47.3807 41.6127 47.3287 41.7254C47.281 41.838 47.2138 41.9377 47.1272 42.0244C47.0405 42.1067 46.9387 42.1739 46.8217 42.2259C46.709 42.2735 46.5877 42.2974 46.4577 42.2974C46.332 42.2974 46.2128 42.2735 46.1002 42.2259C45.9918 42.1739 45.8965 42.1067 45.8142 42.0244C45.7318 41.9377 45.6647 41.838 45.6127 41.7254C45.565 41.6127 45.5412 41.4935 45.5412 41.3679C45.5412 41.2379 45.565 41.1165 45.6127 41.0039C45.6647 40.8912 45.7318 40.7937 45.8142 40.7114C45.8965 40.6247 45.9918 40.5575 46.1002 40.5099C46.2128 40.4579 46.332 40.4319 46.4577 40.4319C46.5877 40.4319 46.709 40.4579 46.8217 40.5099C46.9387 40.5575 47.0405 40.6247 47.1272 40.7114C47.2138 40.7937 47.281 40.8912 47.3287 41.0039C47.3807 41.1165 47.4067 41.2379 47.4067 41.3679Z" fill="#49497C"></path>
    <path d="M51.0541 50.1039C50.5038 50.1039 50.0791 49.95 49.7801 49.6424C49.4854 49.3304 49.3381 48.8927 49.3381 48.3294V44.4684H48.6101C48.5321 44.4684 48.4649 44.4445 48.4086 44.3969C48.3523 44.3449 48.3241 44.269 48.3241 44.1694V43.6039L49.3966 43.4479L49.7021 41.5304C49.7238 41.4567 49.7606 41.3982 49.8126 41.3549C49.8646 41.3072 49.9339 41.2834 50.0206 41.2834H50.7356V43.4609H52.5751V44.4684H50.7356V48.2319C50.7356 48.4702 50.7941 48.6522 50.9111 48.7779C51.0281 48.9035 51.1841 48.9664 51.3791 48.9664C51.4874 48.9664 51.5806 48.9534 51.6586 48.9274C51.7366 48.897 51.8038 48.8667 51.8601 48.8364C51.9164 48.8017 51.9641 48.7714 52.0031 48.7454C52.0464 48.715 52.0876 48.6999 52.1266 48.6999C52.2046 48.6999 52.2674 48.7432 52.3151 48.8299L52.7311 49.5124C52.5144 49.703 52.2588 49.8504 51.9641 49.9544C51.6694 50.054 51.3661 50.1039 51.0541 50.1039Z" fill="#49497C"></path>
    <path d="M57.2191 47.1009C56.7208 47.1182 56.3005 47.1594 55.9581 47.2244C55.6158 47.285 55.3385 47.3652 55.1261 47.4649C54.9138 47.5602 54.76 47.675 54.6646 47.8094C54.5736 47.9437 54.5281 48.091 54.5281 48.2514C54.5281 48.4074 54.552 48.5417 54.5996 48.6544C54.6516 48.7627 54.721 48.8537 54.8076 48.9274C54.8986 48.9967 55.0026 49.0487 55.1196 49.0834C55.241 49.1137 55.3731 49.1289 55.5161 49.1289C55.8801 49.1289 56.1921 49.0617 56.4521 48.9274C56.7165 48.7887 56.9721 48.5894 57.2191 48.3294V47.1009ZM53.5141 44.2929C54.2638 43.5952 55.1565 43.2464 56.1921 43.2464C56.5735 43.2464 56.9115 43.3092 57.2061 43.4349C57.5051 43.5562 57.7543 43.7295 57.9536 43.9549C58.1573 44.1802 58.3111 44.4489 58.4151 44.7609C58.5235 45.0685 58.5776 45.4109 58.5776 45.7879V49.9999H57.9536C57.8193 49.9999 57.7175 49.9804 57.6481 49.9414C57.5788 49.898 57.5203 49.8135 57.4726 49.6879L57.3361 49.1484C57.1671 49.3 57.0003 49.4365 56.8356 49.5579C56.671 49.6749 56.4998 49.7745 56.3221 49.8569C56.1488 49.9392 55.9603 49.9999 55.7566 50.0389C55.5573 50.0822 55.3363 50.1039 55.0936 50.1039C54.825 50.1039 54.5736 50.067 54.3396 49.9934C54.11 49.9197 53.9106 49.8092 53.7416 49.6619C53.5726 49.5102 53.4383 49.3239 53.3386 49.1029C53.2433 48.8819 53.1956 48.6219 53.1956 48.3229C53.1956 48.0672 53.2628 47.818 53.3971 47.5754C53.5358 47.3327 53.7611 47.116 54.0731 46.9254C54.3895 46.7304 54.8033 46.57 55.3146 46.4444C55.8303 46.3187 56.4651 46.2472 57.2191 46.2299V45.7879C57.2191 45.3112 57.1173 44.9559 56.9136 44.7219C56.71 44.4879 56.411 44.3709 56.0166 44.3709C55.748 44.3709 55.5226 44.4055 55.3406 44.4749C55.1586 44.5399 55.0005 44.6114 54.8661 44.6894C54.7318 44.7674 54.6126 44.841 54.5086 44.9104C54.4046 44.9754 54.2941 45.0079 54.1771 45.0079C54.0818 45.0079 53.9995 44.984 53.9301 44.9364C53.8651 44.8844 53.811 44.8215 53.7676 44.7479L53.5141 44.2929Z" fill="#49497C"></path>
    <path d="M61.6382 40.3799V49.9999H60.2407V40.3799H61.6382Z" fill="#49497C"></path>
    <path d="M72.9084 41.9074H69.9899V49.9999H68.4754V41.9074H65.5504V40.6399H72.9084V41.9074Z" fill="#49497C"></path>
    <path d="M76.7253 45.9374C76.7253 45.7034 76.6907 45.4867 76.6213 45.2874C76.5563 45.0837 76.4588 44.9082 76.3288 44.7609C76.1988 44.6092 76.0363 44.4922 75.8413 44.4099C75.6507 44.3232 75.4297 44.2799 75.1783 44.2799C74.6713 44.2799 74.2727 44.425 73.9823 44.7154C73.692 45.0057 73.5078 45.413 73.4298 45.9374H76.7253ZM73.3908 46.7954C73.4082 47.1724 73.4667 47.4995 73.5663 47.7769C73.666 48.0499 73.7982 48.2774 73.9628 48.4594C74.1318 48.6414 74.3312 48.7779 74.5608 48.8689C74.7948 48.9555 75.0548 48.9989 75.3408 48.9989C75.6138 48.9989 75.85 48.9685 76.0493 48.9079C76.2487 48.8429 76.422 48.7735 76.5693 48.6999C76.7167 48.6219 76.8423 48.5525 76.9463 48.4919C77.0503 48.4269 77.1457 48.3944 77.2323 48.3944C77.345 48.3944 77.4317 48.4377 77.4923 48.5244L77.8888 49.0379C77.7242 49.2329 77.5378 49.3975 77.3298 49.5319C77.1218 49.6662 76.9008 49.7767 76.6668 49.8634C76.4328 49.9457 76.1923 50.0042 75.9453 50.0389C75.6983 50.0779 75.4578 50.0974 75.2238 50.0974C74.7645 50.0974 74.3377 50.0215 73.9433 49.8699C73.5533 49.7139 73.2132 49.4864 72.9228 49.1874C72.6368 48.8884 72.4115 48.5179 72.2468 48.0759C72.0865 47.6339 72.0063 47.1247 72.0063 46.5484C72.0063 46.089 72.0778 45.66 72.2208 45.2614C72.3682 44.8627 72.5762 44.516 72.8448 44.2214C73.1178 43.9267 73.4472 43.6949 73.8328 43.5259C74.2228 43.3525 74.6627 43.2659 75.1523 43.2659C75.5597 43.2659 75.9367 43.333 76.2833 43.4674C76.63 43.5974 76.929 43.7902 77.1803 44.0459C77.4317 44.3015 77.6267 44.6157 77.7653 44.9884C77.9083 45.3567 77.9798 45.777 77.9798 46.2494C77.9798 46.466 77.956 46.6112 77.9083 46.6849C77.8607 46.7585 77.774 46.7954 77.6483 46.7954H73.3908Z" fill="#49497C"></path>
    <path d="M84.8882 49.9999H83.5492C83.4409 49.9999 83.3542 49.9717 83.2892 49.9154C83.2286 49.859 83.1787 49.7962 83.1397 49.7269L81.6122 47.2764C81.5732 47.4237 81.5212 47.5515 81.4562 47.6599L80.0717 49.7269C80.024 49.7962 79.9699 49.859 79.9092 49.9154C79.8529 49.9717 79.7771 49.9999 79.6817 49.9999H78.4337L80.7282 46.5809L78.5247 43.3699H79.8637C79.9721 43.3699 80.0501 43.3872 80.0977 43.4219C80.1497 43.4522 80.1952 43.4999 80.2342 43.5649L81.7357 45.9049C81.7747 45.7619 81.8354 45.6254 81.9177 45.4954L83.1852 43.5909C83.2719 43.4435 83.3824 43.3699 83.5167 43.3699H84.7972L82.5937 46.5224L84.8882 49.9999Z" fill="#49497C"></path>
    <path d="M87.9594 50.1039C87.409 50.1039 86.9844 49.95 86.6854 49.6424C86.3907 49.3304 86.2434 48.8927 86.2434 48.3294V44.4684H85.5154C85.4374 44.4684 85.3702 44.4445 85.3139 44.3969C85.2575 44.3449 85.2294 44.269 85.2294 44.1694V43.6039L86.3019 43.4479L86.6074 41.5304C86.629 41.4567 86.6659 41.3982 86.7179 41.3549C86.7699 41.3072 86.8392 41.2834 86.9259 41.2834H87.6409V43.4609H89.4804V44.4684H87.6409V48.2319C87.6409 48.4702 87.6994 48.6522 87.8164 48.7779C87.9334 48.9035 88.0894 48.9664 88.2844 48.9664C88.3927 48.9664 88.4859 48.9534 88.5639 48.9274C88.6419 48.897 88.709 48.8667 88.7654 48.8364C88.8217 48.8017 88.8694 48.7714 88.9084 48.7454C88.9517 48.715 88.9929 48.6999 89.0319 48.6999C89.1099 48.6999 89.1727 48.7432 89.2204 48.8299L89.6364 49.5124C89.4197 49.703 89.164 49.8504 88.8694 49.9544C88.5747 50.054 88.2714 50.1039 87.9594 50.1039Z" fill="#49497C"></path>
    <path d="M91.9794 48.3359C92.1744 48.5872 92.3868 48.7649 92.6164 48.8689C92.8504 48.9685 93.1039 49.0184 93.3769 49.0184C93.9272 49.0184 94.3563 48.819 94.6639 48.4204C94.9716 48.0217 95.1254 47.4042 95.1254 46.5679C95.1254 45.8052 94.9911 45.2484 94.7224 44.8974C94.4581 44.5464 94.0789 44.3709 93.5849 44.3709C93.2426 44.3709 92.9436 44.4489 92.6879 44.6049C92.4366 44.7565 92.2004 44.9754 91.9794 45.2614V48.3359ZM91.9794 44.2474C92.2524 43.9484 92.5579 43.71 92.8959 43.5324C93.2339 43.3547 93.6196 43.2659 94.0529 43.2659C94.4386 43.2659 94.7853 43.3417 95.0929 43.4934C95.4049 43.6407 95.6693 43.8552 95.8859 44.1369C96.1026 44.4185 96.2694 44.7609 96.3864 45.1639C96.5034 45.5625 96.5619 46.0132 96.5619 46.5159C96.5619 47.0532 96.4947 47.5429 96.3604 47.9849C96.2304 48.4225 96.0419 48.7995 95.7949 49.1159C95.5479 49.4279 95.2489 49.6705 94.8979 49.8439C94.5469 50.0129 94.1547 50.0974 93.7214 50.0974C93.5091 50.0974 93.3162 50.0757 93.1429 50.0324C92.9696 49.9934 92.8093 49.9349 92.6619 49.8569C92.5146 49.7789 92.3781 49.6857 92.2524 49.5774C92.1311 49.469 92.0141 49.3455 91.9014 49.2069L91.8429 49.7204C91.8213 49.82 91.7822 49.8915 91.7259 49.9349C91.6696 49.9782 91.5916 49.9999 91.4919 49.9999H90.5819V40.3799H91.9794V44.2474Z" fill="#49497C"></path>
    <path d="M100.786 43.2659C101.276 43.2659 101.718 43.346 102.112 43.5064C102.511 43.6667 102.849 43.8942 103.126 44.1889C103.408 44.4835 103.625 44.841 103.776 45.2614C103.928 45.6817 104.004 46.154 104.004 46.6784C104.004 47.2027 103.928 47.675 103.776 48.0954C103.625 48.5157 103.408 48.8754 103.126 49.1744C102.849 49.469 102.511 49.6965 102.112 49.8569C101.718 50.0172 101.276 50.0974 100.786 50.0974C100.292 50.0974 99.846 50.0172 99.4473 49.8569C99.053 49.6965 98.715 49.469 98.4333 49.1744C98.1516 48.8754 97.935 48.5157 97.7833 48.0954C97.6316 47.675 97.5558 47.2027 97.5558 46.6784C97.5558 46.154 97.6316 45.6817 97.7833 45.2614C97.935 44.841 98.1516 44.4835 98.4333 44.1889C98.715 43.8942 99.053 43.6667 99.4473 43.5064C99.846 43.346 100.292 43.2659 100.786 43.2659ZM100.786 49.0054C101.384 49.0054 101.828 48.806 102.119 48.4074C102.413 48.0044 102.561 47.4302 102.561 46.6849C102.561 45.9395 102.413 45.3654 102.119 44.9624C101.828 44.555 101.384 44.3514 100.786 44.3514C100.18 44.3514 99.729 44.555 99.4343 44.9624C99.1396 45.3654 98.9923 45.9395 98.9923 46.6849C98.9923 47.4302 99.1396 48.0044 99.4343 48.4074C99.729 48.806 100.18 49.0054 100.786 49.0054Z" fill="#49497C"></path>
    <path d="M108.213 43.2659C108.703 43.2659 109.145 43.346 109.539 43.5064C109.938 43.6667 110.276 43.8942 110.553 44.1889C110.835 44.4835 111.051 44.841 111.203 45.2614C111.355 45.6817 111.431 46.154 111.431 46.6784C111.431 47.2027 111.355 47.675 111.203 48.0954C111.051 48.5157 110.835 48.8754 110.553 49.1744C110.276 49.469 109.938 49.6965 109.539 49.8569C109.145 50.0172 108.703 50.0974 108.213 50.0974C107.719 50.0974 107.273 50.0172 106.874 49.8569C106.48 49.6965 106.142 49.469 105.86 49.1744C105.578 48.8754 105.362 48.5157 105.21 48.0954C105.058 47.675 104.983 47.2027 104.983 46.6784C104.983 46.154 105.058 45.6817 105.21 45.2614C105.362 44.841 105.578 44.4835 105.86 44.1889C106.142 43.8942 106.48 43.6667 106.874 43.5064C107.273 43.346 107.719 43.2659 108.213 43.2659ZM108.213 49.0054C108.811 49.0054 109.255 48.806 109.546 48.4074C109.84 48.0044 109.988 47.4302 109.988 46.6849C109.988 45.9395 109.84 45.3654 109.546 44.9624C109.255 44.555 108.811 44.3514 108.213 44.3514C107.606 44.3514 107.156 44.555 106.861 44.9624C106.566 45.3654 106.419 45.9395 106.419 46.6849C106.419 47.4302 106.566 48.0044 106.861 48.4074C107.156 48.806 107.606 49.0054 108.213 49.0054Z" fill="#49497C"></path>
    <path d="M114.171 40.3799V45.9569H114.47C114.565 45.9569 114.643 45.9439 114.704 45.9179C114.764 45.8919 114.827 45.8377 114.892 45.7554L116.751 43.6299C116.816 43.5432 116.888 43.4782 116.966 43.4349C117.044 43.3915 117.143 43.3699 117.265 43.3699H118.532L116.296 45.8919C116.166 46.0609 116.023 46.1952 115.867 46.2949C115.954 46.3555 116.03 46.4249 116.095 46.5029C116.16 46.5765 116.223 46.661 116.283 46.7564L118.669 49.9999H117.421C117.308 49.9999 117.211 49.9825 117.128 49.9479C117.05 49.9089 116.981 49.8395 116.92 49.7399L115.003 47.1399C114.938 47.0402 114.873 46.9774 114.808 46.9514C114.743 46.921 114.645 46.9059 114.515 46.9059H114.171V49.9999H112.773V40.3799H114.171Z" fill="#49497C"></path>
    <path d="M125.975 45.4109C126.313 45.4109 126.609 45.3675 126.865 45.2809C127.125 45.1942 127.34 45.0729 127.509 44.9169C127.682 44.7565 127.812 44.5637 127.899 44.3384C127.985 44.113 128.029 43.8617 128.029 43.5844C128.029 43.3114 127.985 43.0665 127.899 42.8499C127.816 42.6332 127.691 42.449 127.522 42.2974C127.353 42.1457 127.138 42.0309 126.878 41.9529C126.622 41.8705 126.321 41.8294 125.975 41.8294H124.584V45.4109H125.975ZM125.975 40.6399C126.586 40.6399 127.114 40.7114 127.561 40.8544C128.011 40.9974 128.382 41.1989 128.672 41.4589C128.967 41.7145 129.186 42.0244 129.329 42.3884C129.472 42.748 129.543 43.1467 129.543 43.5844C129.543 44.0307 129.467 44.4402 129.316 44.8129C129.164 45.1812 128.939 45.4997 128.64 45.7684C128.341 46.0327 127.968 46.2407 127.522 46.3924C127.08 46.5397 126.564 46.6134 125.975 46.6134H124.584V49.9999H123.063V40.6399H125.975Z" fill="#49497C"></path>
    <path d="M132.123 40.3799V49.9999H130.725V40.3799H132.123Z" fill="#49497C"></path>
    <path d="M137.39 47.1009C136.892 47.1182 136.471 47.1594 136.129 47.2244C135.787 47.285 135.509 47.3652 135.297 47.4649C135.085 47.5602 134.931 47.675 134.836 47.8094C134.745 47.9437 134.699 48.091 134.699 48.2514C134.699 48.4074 134.723 48.5417 134.771 48.6544C134.823 48.7627 134.892 48.8537 134.979 48.9274C135.07 48.9967 135.174 49.0487 135.291 49.0834C135.412 49.1137 135.544 49.1289 135.687 49.1289C136.051 49.1289 136.363 49.0617 136.623 48.9274C136.887 48.7887 137.143 48.5894 137.39 48.3294V47.1009ZM133.685 44.2929C134.435 43.5952 135.327 43.2464 136.363 43.2464C136.744 43.2464 137.082 43.3092 137.377 43.4349C137.676 43.5562 137.925 43.7295 138.125 43.9549C138.328 44.1802 138.482 44.4489 138.586 44.7609C138.694 45.0685 138.749 45.4109 138.749 45.7879V49.9999H138.125C137.99 49.9999 137.888 49.9804 137.819 49.9414C137.75 49.898 137.691 49.8135 137.644 49.6879L137.507 49.1484C137.338 49.3 137.171 49.4365 137.007 49.5579C136.842 49.6749 136.671 49.7745 136.493 49.8569C136.32 49.9392 136.131 49.9999 135.928 50.0389C135.728 50.0822 135.507 50.1039 135.265 50.1039C134.996 50.1039 134.745 50.067 134.511 49.9934C134.281 49.9197 134.082 49.8092 133.913 49.6619C133.744 49.5102 133.609 49.3239 133.51 49.1029C133.414 48.8819 133.367 48.6219 133.367 48.3229C133.367 48.0672 133.434 47.818 133.568 47.5754C133.707 47.3327 133.932 47.116 134.244 46.9254C134.56 46.7304 134.974 46.57 135.486 46.4444C136.001 46.3187 136.636 46.2472 137.39 46.2299V45.7879C137.39 45.3112 137.288 44.9559 137.085 44.7219C136.881 44.4879 136.582 44.3709 136.188 44.3709C135.919 44.3709 135.694 44.4055 135.512 44.4749C135.33 44.5399 135.171 44.6114 135.037 44.6894C134.903 44.7674 134.784 44.841 134.68 44.9104C134.576 44.9754 134.465 45.0079 134.348 45.0079C134.253 45.0079 134.17 44.984 134.101 44.9364C134.036 44.8844 133.982 44.8215 133.939 44.7479L133.685 44.2929Z" fill="#49497C"></path>
    <path d="M145.172 49.9999V44.4684H142.104V48.2319C142.104 48.4702 142.162 48.6522 142.279 48.7779C142.396 48.9035 142.552 48.9664 142.747 48.9664C142.856 48.9664 142.949 48.9534 143.027 48.9274C143.105 48.897 143.172 48.8667 143.228 48.8364C143.285 48.8017 143.332 48.7714 143.371 48.7454C143.415 48.715 143.456 48.6999 143.495 48.6999C143.573 48.6999 143.636 48.7432 143.683 48.8299L144.099 49.5124C143.883 49.703 143.627 49.8504 143.332 49.9544C143.038 50.054 142.734 50.1039 142.422 50.1039C141.872 50.1039 141.447 49.95 141.148 49.6424C140.854 49.3304 140.706 48.8927 140.706 48.3294V44.4684H139.978C139.9 44.4684 139.833 44.4445 139.777 44.3969C139.72 44.3449 139.692 44.269 139.692 44.1694V43.6039L140.765 43.4479L141.07 41.5304C141.092 41.4567 141.129 41.3982 141.181 41.3549C141.233 41.3072 141.302 41.2834 141.389 41.2834H142.104V43.4609H145.172V42.9019C145.172 42.5249 145.226 42.1869 145.334 41.8879C145.447 41.5889 145.605 41.3354 145.809 41.1274C146.017 40.9194 146.268 40.7612 146.563 40.6529C146.857 40.5402 147.187 40.4839 147.551 40.4839C147.841 40.4839 148.121 40.5272 148.389 40.6139L148.357 41.3159C148.348 41.4329 148.29 41.5022 148.181 41.5239C148.077 41.5455 147.945 41.5564 147.785 41.5564C147.59 41.5564 147.414 41.5802 147.258 41.6279C147.102 41.6712 146.968 41.747 146.855 41.8554C146.747 41.9637 146.662 42.1067 146.602 42.2844C146.545 42.462 146.517 42.683 146.517 42.9474V43.4609H148.331V44.4684H146.563V49.9999H145.172Z" fill="#49497C"></path>
    <path d="M152.012 43.2659C152.502 43.2659 152.944 43.346 153.338 43.5064C153.737 43.6667 154.075 43.8942 154.352 44.1889C154.634 44.4835 154.85 44.841 155.002 45.2614C155.154 45.6817 155.229 46.154 155.229 46.6784C155.229 47.2027 155.154 47.675 155.002 48.0954C154.85 48.5157 154.634 48.8754 154.352 49.1744C154.075 49.469 153.737 49.6965 153.338 49.8569C152.944 50.0172 152.502 50.0974 152.012 50.0974C151.518 50.0974 151.072 50.0172 150.673 49.8569C150.279 49.6965 149.941 49.469 149.659 49.1744C149.377 48.8754 149.161 48.5157 149.009 48.0954C148.857 47.675 148.781 47.2027 148.781 46.6784C148.781 46.154 148.857 45.6817 149.009 45.2614C149.161 44.841 149.377 44.4835 149.659 44.1889C149.941 43.8942 150.279 43.6667 150.673 43.5064C151.072 43.346 151.518 43.2659 152.012 43.2659ZM152.012 49.0054C152.61 49.0054 153.054 48.806 153.344 48.4074C153.639 48.0044 153.786 47.4302 153.786 46.6849C153.786 45.9395 153.639 45.3654 153.344 44.9624C153.054 44.555 152.61 44.3514 152.012 44.3514C151.405 44.3514 150.955 44.555 150.66 44.9624C150.365 45.3654 150.218 45.9395 150.218 46.6849C150.218 47.4302 150.365 48.0044 150.66 48.4074C150.955 48.806 151.405 49.0054 152.012 49.0054Z" fill="#49497C"></path>
    <path d="M157.892 44.5984C158.1 44.178 158.351 43.8487 158.646 43.6104C158.94 43.3677 159.293 43.2464 159.705 43.2464C159.848 43.2464 159.982 43.2637 160.108 43.2984C160.234 43.3287 160.346 43.3764 160.446 43.4414L160.349 44.4944C160.331 44.568 160.303 44.62 160.264 44.6504C160.229 44.6764 160.182 44.6894 160.121 44.6894C160.056 44.6894 159.963 44.6785 159.842 44.6569C159.72 44.6309 159.592 44.6179 159.458 44.6179C159.263 44.6179 159.09 44.646 158.938 44.7024C158.791 44.7587 158.656 44.841 158.535 44.9494C158.418 45.0577 158.314 45.1899 158.223 45.3459C158.132 45.5019 158.048 45.6796 157.97 45.8789V49.9999H156.572V43.3699H157.385C157.532 43.3699 157.634 43.398 157.69 43.4544C157.746 43.5064 157.785 43.5995 157.807 43.7339L157.892 44.5984Z" fill="#49497C"></path>
    <path d="M161.371 49.9999V43.3699H162.216C162.407 43.3699 162.528 43.4587 162.58 43.6364L162.671 44.2149C162.792 44.0762 162.918 43.9505 163.048 43.8379C163.178 43.7209 163.317 43.6212 163.464 43.5389C163.616 43.4522 163.776 43.385 163.945 43.3374C164.118 43.2897 164.305 43.2659 164.504 43.2659C164.716 43.2659 164.911 43.2962 165.089 43.3569C165.267 43.4175 165.423 43.5042 165.557 43.6169C165.696 43.7295 165.815 43.866 165.914 44.0264C166.014 44.1867 166.096 44.3665 166.161 44.5659C166.261 44.3362 166.387 44.139 166.538 43.9744C166.69 43.8097 166.859 43.6754 167.045 43.5714C167.232 43.4674 167.429 43.3915 167.637 43.3439C167.849 43.2919 168.064 43.2659 168.28 43.2659C168.636 43.2659 168.952 43.3222 169.229 43.4349C169.511 43.5475 169.747 43.7122 169.938 43.9289C170.133 44.1412 170.28 44.4034 170.38 44.7154C170.48 45.0274 170.529 45.3827 170.529 45.7814V49.9999H169.132V45.7814C169.132 45.3134 169.03 44.9624 168.826 44.7284C168.627 44.49 168.33 44.3709 167.936 44.3709C167.758 44.3709 167.591 44.4012 167.435 44.4619C167.279 44.5225 167.143 44.6114 167.026 44.7284C166.909 44.8454 166.816 44.9927 166.746 45.1704C166.681 45.3437 166.649 45.5474 166.649 45.7814V49.9999H165.251V45.7814C165.251 45.296 165.154 44.9407 164.959 44.7154C164.764 44.4857 164.478 44.3709 164.101 44.3709C163.841 44.3709 163.6 44.438 163.379 44.5724C163.158 44.7024 162.955 44.8822 162.768 45.1119V49.9999H161.371Z" fill="#49497C"></path>
  </g>
  <defs>
    <clipPath id="clip0_284_189">
      <rect width="189" height="52" fill="white" transform="translate(0 0.200928)"></rect>
    </clipPath>
  </defs>
</svg>
