<?xml version="1.0" encoding="utf-8"?>
<!-- Generator: Adobe Illustrator 27.6.1, SVG Export Plug-In . SVG Version: 6.00 Build 0)  -->
<svg version="1.1" id="Layer_1" xmlns="http://www.w3.org/2000/svg" xmlns:xlink="http://www.w3.org/1999/xlink" x="0px" y="0px"
	 viewBox="0 0 1500 459.6" style="enable-background:new 0 0 1500 459.6;" xml:space="preserve">
<style type="text/css">
	.st0{fill:#05BCE1;}
	.st1{fill:#003863;}
</style>
<g>
	<path class="st0" d="M452.8,321.9v-28.1h6v28.1H452.8z"/>
	<path class="st0" d="M494.7,321.9h-7.6l-12.2-21.2h-0.2c0.2,3.8,0.4,6.4,0.4,8v13.2h-5.3v-28.1h7.5l12.2,21h0.1
		c-0.2-3.6-0.3-6.2-0.3-7.7v-13.3h5.4V321.9z"/>
	<path class="st0" d="M530.6,321.9H523l-12.2-21.2h-0.2c0.2,3.8,0.4,6.4,0.4,8v13.2h-5.3v-28.1h7.5l12.2,21h0.1
		c-0.2-3.6-0.3-6.2-0.3-7.7v-13.3h5.4V321.9z"/>
	<path class="st0" d="M567.1,307.8c0,4.6-1.2,8.2-3.5,10.7s-5.6,3.7-9.9,3.7s-7.6-1.2-9.9-3.7c-2.3-2.5-3.5-6.1-3.5-10.8
		s1.2-8.2,3.5-10.7s5.6-3.7,9.9-3.7s7.6,1.2,9.9,3.7C565.9,299.6,567.1,303.2,567.1,307.8z M546.6,307.8c0,3.1,0.6,5.5,1.8,7.1
		c1.2,1.6,3,2.4,5.3,2.4c4.7,0,7.1-3.2,7.1-9.5c0-6.3-2.4-9.5-7.1-9.5c-2.4,0-4.2,0.8-5.4,2.4C547.2,302.3,546.6,304.7,546.6,307.8z
		"/>
	<path class="st0" d="M592.8,293.8h6l-9.5,28.1h-6.5l-9.5-28.1h6l5.3,16.7c0.3,1,0.6,2.1,0.9,3.4c0.3,1.3,0.5,2.2,0.6,2.7
		c0.1-1.2,0.6-3.2,1.4-6.2L592.8,293.8z"/>
	<path class="st0" d="M623.5,321.9l-2-6.7h-10.2l-2,6.7h-6.4l9.9-28.2h7.3l9.9,28.2H623.5z M620,310.2c-1.9-6.1-2.9-9.5-3.2-10.3
		s-0.4-1.4-0.5-1.9c-0.4,1.6-1.6,5.7-3.6,12.2H620z"/>
	<path class="st0" d="M648.2,321.9h-6v-23.1h-7.6v-5h21.2v5h-7.6V321.9z"/>
	<path class="st0" d="M680.2,321.9h-16.2v-28.1h16.2v4.9H670v6.2h9.5v4.9H670v7.2h10.2V321.9z"/>
	<path class="st0" d="M709.4,290.6h4.2v34.1h-4.2V290.6z"/>
	<path class="st0" d="M1044,290.6h4.2v34.1h-4.2V290.6z"/>
	<path class="st0" d="M761.1,321.9l-2-6.7h-10.2l-2,6.7h-6.4l9.9-28.2h7.3l9.9,28.2H761.1z M757.6,310.2c-1.9-6.1-2.9-9.5-3.2-10.3
		c-0.2-0.8-0.4-1.4-0.5-1.9c-0.4,1.6-1.6,5.7-3.6,12.2H757.6z"/>
	<path class="st0" d="M786.9,298.4c-2.2,0-4,0.8-5.2,2.5c-1.2,1.7-1.8,4-1.8,7c0,6.3,2.3,9.4,7,9.4c2,0,4.4-0.5,7.2-1.5v5
		c-2.3,1-4.9,1.4-7.7,1.4c-4.1,0-7.2-1.2-9.4-3.7c-2.2-2.5-3.2-6-3.2-10.7c0-2.9,0.5-5.5,1.6-7.7s2.6-3.9,4.6-5.1
		c2-1.2,4.3-1.8,7-1.8c2.7,0,5.5,0.7,8.2,2l-1.9,4.8c-1-0.5-2.1-0.9-3.2-1.3C789,298.6,787.9,298.4,786.9,298.4z"/>
	<path class="st0" d="M815.9,298.4c-2.2,0-4,0.8-5.2,2.5c-1.2,1.7-1.8,4-1.8,7c0,6.3,2.3,9.4,7,9.4c2,0,4.4-0.5,7.2-1.5v5
		c-2.3,1-4.9,1.4-7.7,1.4c-4.1,0-7.2-1.2-9.4-3.7c-2.2-2.5-3.2-6-3.2-10.7c0-2.9,0.5-5.5,1.6-7.7s2.6-3.9,4.6-5.1
		c2-1.2,4.3-1.8,7-1.8c2.7,0,5.5,0.7,8.2,2l-1.9,4.8c-1-0.5-2.1-0.9-3.2-1.3C818,298.6,816.9,298.4,815.9,298.4z"/>
	<path class="st0" d="M849.1,321.9H833v-28.1h16.2v4.9h-10.2v6.2h9.5v4.9h-9.5v7.2h10.2V321.9z"/>
	<path class="st0" d="M858.9,321.9v-28.1h6V317h11.4v4.9H858.9z"/>
	<path class="st0" d="M901.2,321.9h-16.2v-28.1h16.2v4.9H891v6.2h9.5v4.9H891v7.2h10.2V321.9z"/>
	<path class="st0" d="M917,311.1v10.8h-6v-28.1h8.2c3.8,0,6.6,0.7,8.5,2.1c1.8,1.4,2.7,3.5,2.7,6.3c0,1.7-0.5,3.1-1.4,4.4
		c-0.9,1.3-2.2,2.3-3.9,3c4.2,6.3,7,10.4,8.3,12.2h-6.6l-6.7-10.8H917z M917,306.3h1.9c1.9,0,3.3-0.3,4.2-0.9s1.3-1.6,1.3-3
		c0-1.3-0.5-2.3-1.4-2.8c-0.9-0.6-2.3-0.8-4.3-0.8H917V306.3z"/>
	<path class="st0" d="M958.1,321.9l-2-6.7h-10.2l-2,6.7h-6.4l9.9-28.2h7.3l9.9,28.2H958.1z M954.6,310.2c-1.9-6.1-2.9-9.5-3.2-10.3
		c-0.2-0.8-0.4-1.4-0.5-1.9c-0.4,1.6-1.6,5.7-3.6,12.2H954.6z"/>
	<path class="st0" d="M982.8,321.9h-6v-23.1h-7.6v-5h21.2v5h-7.6V321.9z"/>
	<path class="st0" d="M1014.9,321.9h-16.2v-28.1h16.2v4.9h-10.2v6.2h9.5v4.9h-9.5v7.2h10.2V321.9z"/>
	<path class="st0" d="M1089.4,321.9h-6v-23.1h-7.6v-5h21.2v5h-7.6V321.9z"/>
	<path class="st0" d="M1111.2,311.1v10.8h-6v-28.1h8.2c3.8,0,6.6,0.7,8.5,2.1c1.8,1.4,2.7,3.5,2.7,6.3c0,1.7-0.5,3.1-1.4,4.4
		c-0.9,1.3-2.2,2.3-3.9,3c4.2,6.3,7,10.4,8.3,12.2h-6.6l-6.7-10.8H1111.2z M1111.2,306.3h1.9c1.9,0,3.3-0.3,4.2-0.9
		c0.9-0.6,1.3-1.6,1.3-3c0-1.3-0.5-2.3-1.4-2.8c-0.9-0.6-2.3-0.8-4.3-0.8h-1.8V306.3z"/>
	<path class="st0" d="M1152.3,321.9l-2-6.7H1140l-2,6.7h-6.4l9.9-28.2h7.3l9.9,28.2H1152.3z M1148.9,310.2
		c-1.9-6.1-2.9-9.5-3.2-10.3s-0.4-1.4-0.5-1.9c-0.4,1.6-1.6,5.7-3.6,12.2H1148.9z"/>
	<path class="st0" d="M1191.1,321.9h-7.6l-12.2-21.2h-0.2c0.2,3.8,0.4,6.4,0.4,8v13.2h-5.3v-28.1h7.5l12.2,21h0.1
		c-0.2-3.6-0.3-6.2-0.3-7.7v-13.3h5.4V321.9z"/>
	<path class="st0" d="M1218.7,314.1c0,2.5-0.9,4.5-2.7,6c-1.8,1.5-4.4,2.2-7.6,2.2c-3,0-5.6-0.6-7.9-1.7v-5.5
		c1.9,0.8,3.5,1.4,4.8,1.8c1.3,0.3,2.5,0.5,3.6,0.5c1.3,0,2.3-0.2,3-0.7c0.7-0.5,1-1.2,1-2.2c0-0.6-0.2-1-0.5-1.5
		c-0.3-0.4-0.8-0.8-1.4-1.2c-0.6-0.4-1.8-1-3.6-1.9c-1.7-0.8-3-1.6-3.9-2.3c-0.9-0.7-1.5-1.6-2.1-2.6c-0.5-1-0.8-2.1-0.8-3.5
		c0-2.5,0.8-4.4,2.5-5.9c1.7-1.4,4-2.1,7-2.1c1.5,0,2.9,0.2,4.2,0.5c1.3,0.3,2.7,0.8,4.2,1.5l-1.9,4.6c-1.5-0.6-2.7-1-3.7-1.3
		c-1-0.2-1.9-0.4-2.9-0.4c-1.1,0-2,0.3-2.6,0.8c-0.6,0.5-0.9,1.2-0.9,2.1c0,0.5,0.1,1,0.4,1.4c0.2,0.4,0.6,0.8,1.2,1.1
		c0.5,0.4,1.8,1,3.8,2c2.6,1.3,4.4,2.5,5.4,3.8C1218.2,310.7,1218.7,312.3,1218.7,314.1z"/>
	<path class="st0" d="M1233.6,321.9h-5.9v-28.1h16.1v4.9h-10.2v7.2h9.5v4.9h-9.5V321.9z"/>
	<path class="st0" d="M1278.7,307.8c0,4.6-1.2,8.2-3.5,10.7s-5.6,3.7-9.9,3.7c-4.3,0-7.6-1.2-9.9-3.7s-3.5-6.1-3.5-10.8
		s1.2-8.2,3.5-10.7c2.3-2.5,5.6-3.7,9.9-3.7c4.3,0,7.6,1.2,9.9,3.7S1278.7,303.2,1278.7,307.8z M1258.2,307.8c0,3.1,0.6,5.5,1.8,7.1
		s3,2.4,5.3,2.4c4.7,0,7.1-3.2,7.1-9.5c0-6.3-2.4-9.5-7.1-9.5c-2.4,0-4.2,0.8-5.4,2.4C1258.8,302.3,1258.2,304.7,1258.2,307.8z"/>
	<path class="st0" d="M1294.4,311.1v10.8h-6v-28.1h8.2c3.8,0,6.6,0.7,8.5,2.1c1.8,1.4,2.7,3.5,2.7,6.3c0,1.7-0.5,3.1-1.4,4.4
		c-0.9,1.3-2.2,2.3-3.9,3c4.2,6.3,7,10.4,8.3,12.2h-6.6l-6.7-10.8H1294.4z M1294.4,306.3h1.9c1.9,0,3.3-0.3,4.2-0.9
		c0.9-0.6,1.3-1.6,1.3-3c0-1.3-0.5-2.3-1.4-2.8c-0.9-0.6-2.3-0.8-4.3-0.8h-1.8V306.3z"/>
	<path class="st0" d="M1330.2,321.9l-6.8-22h-0.2c0.2,4.5,0.4,7.5,0.4,9v13.1h-5.3v-28.1h8.1l6.6,21.5h0.1l7-21.5h8.1v28.1h-5.5
		v-13.3c0-0.6,0-1.4,0-2.2c0-0.8,0.1-3,0.3-6.5h-0.2l-7.2,22H1330.2z"/>
</g>
<g>
	<path class="st1" d="M292,177.2l-51.7,97.3c-1.3,2.4-4.8,2.4-6.1,0l-4.2-7.8l-12.8-24L185,182c0-0.1-0.1-0.1-0.1-0.2l-2.5-4.6H117
		L179.1,294v0.1l16.3,30.5h9.8h6.8h8.9l-2-3.7h0l-22-41.4l0,0l-34.7-65.1c-6.6-1-11.4-6.5-11.4-13.2c0-9.9,10.7-17.3,21.1-11.2
		c1.5,0.9,2.8,2.2,3.6,3.7c3.2,5.7,2.5,12-1.3,16.2l30.3,56.8l12.8,24l7.2,13.6l9.7,18.3c1.3,2.4,4.8,2.4,6.1,0l58.1-109.3
		c0,0,19.5-36.1,19.6-36.1"/>
	<path class="st1" d="M237.3,253"/>
	<path class="st1" d="M179.2,171.3"/>
	<g>
		<polygon class="st1" points="321.6,128 277.2,128 161.5,128 117,128 94.9,128 112.9,162.4 194.5,162.4 194.5,162.4 249.6,162.4 
			216,225.7 234.5,259.1 286.1,162.4 325.8,162.4 343.8,128 		"/>
	</g>
</g>
<g>
	<path class="st1" d="M585.1,128.1h92.7v24.7h-62.7v21.7H668v23.3h-52.9v25.9h62.8V249h-92.7V128.1z"/>
	<path class="st1" d="M729.8,128.1h29.9v95.6h54.3V249h-84.2V128.1z"/>
	<path class="st1" d="M1012.9,128.1h57.8c6,0,11.6,0.8,16.7,2.3c5.2,1.5,9.7,3.8,13.4,6.7c3.8,2.9,6.7,6.6,8.9,10.9
		c2.1,4.3,3.2,9.3,3.2,15c0,7.1-1.7,13.1-5.2,18.1c-3.4,5-8.7,8.7-15.8,11.2v0.5c5.3,1.8,9.3,4.4,12.1,7.9c2.8,3.4,4.6,8.2,5.5,14.3
		c0.7,3.9,1.1,7.8,1.3,11.6c0.2,3.8,0.4,7.2,0.6,10.1c0.2,3,0.6,5.5,1,7.4c0.4,2,1.2,3.1,2.2,3.5v1.5h-29.1
		c-0.8-0.4-1.4-1.6-1.8-3.5c-0.4-1.9-0.7-4.1-1-6.8c-0.3-2.6-0.5-5.5-0.8-8.6c-0.2-3.1-0.6-6.2-1-9.2c-0.8-5.6-2.7-9.9-5.8-12.9
		c-3.1-2.9-7.9-4.4-14.3-4.4h-18.1V249h-29.9V128.1z M1065.3,181.6c6,0,10.5-1.3,13.4-3.9c3-2.6,4.5-6.2,4.5-10.8
		c0-4.4-1.4-8-4.3-10.8c-2.9-2.8-7.2-4.2-12.9-4.2h-23.2v29.8H1065.3z"/>
	<path class="st1" d="M1166.8,128.1h29.9V249h-29.9V128.1z"/>
	<path class="st1" d="M1300.5,249c-7.7,0-14.7-0.8-21-2.5c-6.3-1.7-11.8-4.2-16.2-7.5c-4.5-3.3-8-7.4-10.6-12.3
		c-2.5-4.9-3.9-10.6-4-17h28.9c0.6,5.8,2.9,10.1,6.7,12.7c3.8,2.6,9.2,3.9,16.1,3.9c2.4,0,4.7-0.2,6.9-0.6c2.2-0.4,4.2-1.1,5.9-2.1
		c1.7-1,3.1-2.2,4.2-3.8c1.1-1.6,1.6-3.4,1.6-5.6c0-2.3-0.6-4.2-1.7-5.7c-1.1-1.5-2.8-2.8-5-3.9c-2.2-1.1-4.8-2-8-2.8
		c-3.1-0.8-6.7-1.7-10.7-2.7c-5.1-1.2-10.1-2.5-15-4.1c-4.9-1.5-9.3-3.6-13.2-6.2c-3.9-2.6-7.1-5.9-9.5-9.9c-2.4-4-3.7-9-3.7-15.1
		c0-6.2,1.2-11.5,3.6-16c2.4-4.5,5.6-8.2,9.7-11.1c4.1-2.9,9-5.1,14.6-6.5c5.6-1.4,11.7-2.1,18.2-2.1c6.3,0,12.2,0.7,17.6,2.2
		c5.5,1.5,10.2,3.7,14.3,6.6c4.1,2.9,7.3,6.6,9.7,11.1c2.4,4.5,3.8,9.8,4.1,15.8h-28.1c-0.5-4.5-2.4-8-5.7-10.4
		c-3.2-2.4-7.6-3.6-13-3.6c-5.1,0-9.2,1-12.2,3c-3,2-4.5,4.6-4.5,7.9c0,2.1,0.6,3.8,1.7,5.1c1.1,1.4,2.8,2.5,5,3.5
		c2.2,1,4.9,1.9,8.2,2.7c3.3,0.8,7.1,1.7,11.5,2.7c5.4,1.3,10.6,2.8,15.5,4.4c4.9,1.6,9.3,3.8,13.1,6.5c3.8,2.7,6.8,6.1,9.1,10.2
		c2.3,4.1,3.4,9.3,3.4,15.4c0,6.1-1.2,11.5-3.7,16.2c-2.4,4.7-5.8,8.7-10.1,11.9c-4.3,3.2-9.3,5.6-15.1,7.3
		C1313.5,248.2,1307.2,249,1300.5,249z"/>
	<g>
		<path class="st1" d="M502.8,128.1h30.3L493.4,249h-25.9L502.8,128.1z"/>
		<g>
			<polygon class="st1" points="443.6,128.1 412.4,128.1 452.3,249 465.7,203.5 			"/>
		</g>
	</g>
	<g>
		<path class="st1" d="M927.1,152.3V249h-29.9v-88.6"/>
		<path class="st1" d="M842.6,163.1V128h139.2L842.6,163.1z"/>
	</g>
</g>
</svg>
